<mxfile host="Electron" modified="2023-05-31T14:07:57.342Z" agent="Mozilla/5.0 (Windows NT 10.0; Win64; x64) AppleWebKit/537.36 (KHTML, like Gecko) draw.io/21.2.8 Chrome/112.0.5615.165 Electron/24.2.0 Safari/537.36" etag="MTbtd58VA2PYKsRGMUaa" version="21.2.8" type="device">
  <diagram id="R2lEEEUBdFMjLlhIrx00" name="Page-1">
    <mxGraphModel dx="1050" dy="717" grid="1" gridSize="10" guides="1" tooltips="1" connect="1" arrows="1" fold="1" page="1" pageScale="1" pageWidth="850" pageHeight="1100" math="0" shadow="0" extFonts="Permanent Marker^https://fonts.googleapis.com/css?family=Permanent+Marker">
      <root>
        <mxCell id="0" />
        <mxCell id="1" parent="0" />
        <mxCell id="aAHDLaReW5jri7QP-X0j-24" value="" style="rounded=1;whiteSpace=wrap;html=1;" vertex="1" parent="1">
          <mxGeometry x="40" y="10" width="770" height="620" as="geometry" />
        </mxCell>
        <mxCell id="aAHDLaReW5jri7QP-X0j-19" value="C" style="rounded=1;whiteSpace=wrap;html=1;fillColor=#dae8fc;strokeColor=#6c8ebf;opacity=70;align=left;fontStyle=1;fontSize=18;" vertex="1" parent="1">
          <mxGeometry x="100" y="230" width="660" height="80" as="geometry" />
        </mxCell>
        <mxCell id="aAHDLaReW5jri7QP-X0j-18" value="C++" style="rounded=1;whiteSpace=wrap;html=1;fillColor=#f5f5f5;fontColor=#333333;strokeColor=#666666;opacity=70;align=left;fontStyle=1;fontSize=18;" vertex="1" parent="1">
          <mxGeometry x="100" y="150" width="660" height="80" as="geometry" />
        </mxCell>
        <mxCell id="aAHDLaReW5jri7QP-X0j-20" value=".Net" style="rounded=1;whiteSpace=wrap;html=1;fillColor=#d5e8d4;strokeColor=#82b366;align=left;fontStyle=1;fontSize=18;" vertex="1" parent="1">
          <mxGeometry x="100" y="310" width="660" height="240" as="geometry" />
        </mxCell>
        <mxCell id="aAHDLaReW5jri7QP-X0j-23" value="Library" style="rounded=1;whiteSpace=wrap;html=1;verticalAlign=top;opacity=30;fontStyle=1;fontSize=18;fillColor=#e1d5e7;strokeColor=#9673a6;" vertex="1" parent="1">
          <mxGeometry x="620" y="60" width="120" height="510" as="geometry" />
        </mxCell>
        <mxCell id="aAHDLaReW5jri7QP-X0j-22" value="Wrapper" style="rounded=1;whiteSpace=wrap;html=1;verticalAlign=top;opacity=30;fontStyle=1;fontSize=18;fillColor=#fff2cc;strokeColor=#d6b656;" vertex="1" parent="1">
          <mxGeometry x="445" y="60" width="120" height="510" as="geometry" />
        </mxCell>
        <mxCell id="aAHDLaReW5jri7QP-X0j-21" value="Application" style="rounded=1;whiteSpace=wrap;html=1;verticalAlign=top;opacity=30;fontStyle=1;fontSize=18;fillColor=#ffe6cc;strokeColor=#d79b00;" vertex="1" parent="1">
          <mxGeometry x="240" y="60" width="140" height="510" as="geometry" />
        </mxCell>
        <mxCell id="aAHDLaReW5jri7QP-X0j-1" value="my_class.dll" style="ellipse;whiteSpace=wrap;html=1;fillColor=#dae8fc;strokeColor=#6c8ebf;" vertex="1" parent="1">
          <mxGeometry x="460" y="245" width="90" height="50" as="geometry" />
        </mxCell>
        <mxCell id="aAHDLaReW5jri7QP-X0j-2" value="MyClassCpp.exe" style="rounded=1;whiteSpace=wrap;html=1;fillColor=#f5f5f5;fontColor=#333333;strokeColor=#666666;" vertex="1" parent="1">
          <mxGeometry x="250" y="160" width="120" height="60" as="geometry" />
        </mxCell>
        <mxCell id="aAHDLaReW5jri7QP-X0j-14" style="edgeStyle=orthogonalEdgeStyle;rounded=0;orthogonalLoop=1;jettySize=auto;html=1;entryX=0;entryY=0.5;entryDx=0;entryDy=0;" edge="1" parent="1" source="aAHDLaReW5jri7QP-X0j-3" target="aAHDLaReW5jri7QP-X0j-1">
          <mxGeometry relative="1" as="geometry" />
        </mxCell>
        <mxCell id="aAHDLaReW5jri7QP-X0j-3" value="my_classc.exe" style="rounded=1;whiteSpace=wrap;html=1;fillColor=#dae8fc;strokeColor=#6c8ebf;" vertex="1" parent="1">
          <mxGeometry x="250" y="240" width="120" height="60" as="geometry" />
        </mxCell>
        <mxCell id="aAHDLaReW5jri7QP-X0j-4" value="MyClassNetCpp.exe" style="rounded=1;whiteSpace=wrap;html=1;fillColor=#d5e8d4;strokeColor=#82b366;" vertex="1" parent="1">
          <mxGeometry x="250" y="320" width="120" height="60" as="geometry" />
        </mxCell>
        <mxCell id="aAHDLaReW5jri7QP-X0j-5" value="MyClassSharp.exe" style="rounded=1;whiteSpace=wrap;html=1;fillColor=#d5e8d4;strokeColor=#82b366;" vertex="1" parent="1">
          <mxGeometry x="250" y="400" width="120" height="60" as="geometry" />
        </mxCell>
        <mxCell id="aAHDLaReW5jri7QP-X0j-6" value="MyClassVB.exe" style="rounded=1;whiteSpace=wrap;html=1;fillColor=#d5e8d4;strokeColor=#82b366;" vertex="1" parent="1">
          <mxGeometry x="250" y="480" width="120" height="60" as="geometry" />
        </mxCell>
        <mxCell id="aAHDLaReW5jri7QP-X0j-7" value="MyClassNet.dll" style="ellipse;whiteSpace=wrap;html=1;fillColor=#d5e8d4;strokeColor=#82b366;" vertex="1" parent="1">
          <mxGeometry x="460" y="405" width="90" height="50" as="geometry" />
        </mxCell>
        <mxCell id="aAHDLaReW5jri7QP-X0j-8" value="MyClass.dll" style="ellipse;whiteSpace=wrap;html=1;fillColor=#f5f5f5;fontColor=#333333;strokeColor=#666666;" vertex="1" parent="1">
          <mxGeometry x="650" y="165" width="90" height="50" as="geometry" />
        </mxCell>
        <mxCell id="aAHDLaReW5jri7QP-X0j-11" value="" style="curved=1;endArrow=classic;html=1;rounded=0;entryX=0;entryY=1;entryDx=0;entryDy=0;" edge="1" parent="1">
          <mxGeometry width="50" height="50" relative="1" as="geometry">
            <mxPoint x="370" y="510" as="sourcePoint" />
            <mxPoint x="473" y="448" as="targetPoint" />
            <Array as="points">
              <mxPoint x="420" y="510" />
              <mxPoint x="460" y="490" />
            </Array>
          </mxGeometry>
        </mxCell>
        <mxCell id="aAHDLaReW5jri7QP-X0j-12" value="" style="curved=1;endArrow=classic;html=1;rounded=0;entryX=0;entryY=0;entryDx=0;entryDy=0;" edge="1" parent="1" target="aAHDLaReW5jri7QP-X0j-7">
          <mxGeometry width="50" height="50" relative="1" as="geometry">
            <mxPoint x="370" y="352" as="sourcePoint" />
            <mxPoint x="473" y="290" as="targetPoint" />
            <Array as="points">
              <mxPoint x="420" y="352" />
            </Array>
          </mxGeometry>
        </mxCell>
        <mxCell id="aAHDLaReW5jri7QP-X0j-13" value="" style="curved=1;endArrow=classic;html=1;rounded=0;entryX=0;entryY=0.5;entryDx=0;entryDy=0;" edge="1" parent="1" target="aAHDLaReW5jri7QP-X0j-7">
          <mxGeometry width="50" height="50" relative="1" as="geometry">
            <mxPoint x="370" y="432" as="sourcePoint" />
            <mxPoint x="473" y="370" as="targetPoint" />
            <Array as="points">
              <mxPoint x="420" y="432" />
            </Array>
          </mxGeometry>
        </mxCell>
        <mxCell id="aAHDLaReW5jri7QP-X0j-15" value="" style="curved=1;endArrow=classic;html=1;rounded=0;entryX=0;entryY=1;entryDx=0;entryDy=0;" edge="1" parent="1" target="aAHDLaReW5jri7QP-X0j-8">
          <mxGeometry width="50" height="50" relative="1" as="geometry">
            <mxPoint x="550" y="270" as="sourcePoint" />
            <mxPoint x="653" y="330" as="targetPoint" />
            <Array as="points">
              <mxPoint x="600" y="270" />
            </Array>
          </mxGeometry>
        </mxCell>
        <mxCell id="aAHDLaReW5jri7QP-X0j-16" value="" style="curved=1;endArrow=classic;html=1;rounded=0;entryX=0.5;entryY=1;entryDx=0;entryDy=0;" edge="1" parent="1" target="aAHDLaReW5jri7QP-X0j-8">
          <mxGeometry width="50" height="50" relative="1" as="geometry">
            <mxPoint x="550" y="432" as="sourcePoint" />
            <mxPoint x="653" y="370" as="targetPoint" />
            <Array as="points">
              <mxPoint x="600" y="432" />
              <mxPoint x="640" y="412" />
            </Array>
          </mxGeometry>
        </mxCell>
        <mxCell id="aAHDLaReW5jri7QP-X0j-17" value="" style="curved=1;endArrow=classic;html=1;rounded=0;entryX=0;entryY=0.5;entryDx=0;entryDy=0;" edge="1" parent="1" target="aAHDLaReW5jri7QP-X0j-8">
          <mxGeometry width="50" height="50" relative="1" as="geometry">
            <mxPoint x="370" y="190" as="sourcePoint" />
            <mxPoint x="473" y="252" as="targetPoint" />
            <Array as="points">
              <mxPoint x="600" y="190" />
            </Array>
          </mxGeometry>
        </mxCell>
        <mxCell id="aAHDLaReW5jri7QP-X0j-25" value="Relationships" style="text;html=1;strokeColor=none;fillColor=none;align=center;verticalAlign=middle;whiteSpace=wrap;rounded=0;fontSize=24;fontStyle=1" vertex="1" parent="1">
          <mxGeometry x="100" y="20" width="170" height="30" as="geometry" />
        </mxCell>
      </root>
    </mxGraphModel>
  </diagram>
</mxfile>
